Coordinates
version=1
nRows=29
nColumns=24
inDegrees=yes

Units are S.I. units (second, meters, Newtons, ...)
Angles are in degrees.

endheader
time	pelvis_tilt	pelvis_list	pelvis_rotation	pelvis_tx	pelvis_ty	pelvis_tz	hip_flexion_r	hip_adduction_r	hip_rotation_r	knee_angle_r	ankle_angle_r	subtalar_angle_r	mtp_angle_r	hip_flexion_l	hip_adduction_l	hip_rotation_l	knee_angle_l	ankle_angle_l	subtalar_angle_l	mtp_angle_l	lumbar_extension	lumbar_bending	lumbar_rotation
      3.29000000	     -4.63806874	      9.02166747	      0.50641186	     -0.56062459	     -0.01607458	     -0.18235527	     27.29589419	    -10.85140612	     -3.27810432	    -65.99241705	    -11.30968461	      5.77042539	     26.57366352	      7.80110530	     16.90081259	      4.07940366	    -11.89481812	      5.75586826	      2.22482498	     -8.57893278	      6.99054522	    -10.90291184	     -0.00846138
      3.29500000	     -4.53327449	      8.86532621	      0.56164676	     -0.55449663	     -0.01542645	     -0.18259460	     27.94101765	    -10.62235906	     -3.42436650	    -65.28132389	    -10.64916992	      5.84732936	     26.69128299	      6.82878214	     16.74241643	      4.34953422	    -11.27479973	      5.86090046	      2.24702940	     -8.82433037	      6.82549698	    -10.75390237	     -0.15668575
      3.30000000	     -4.43704894	      8.71607111	      0.62709066	     -0.54839790	     -0.01485813	     -0.18286127	     28.57127810	    -10.40387055	     -3.57116586	    -64.50715372	    -10.01285783	      5.89534830	     26.71572112	      5.88201526	     16.58502188	      4.55840059	    -10.67151202	      5.97767870	      2.34142967	     -9.01063955	      6.66460824	    -10.61338811	     -0.30779681
      3.30500000	     -4.34777745	      8.56885802	      0.69878874	     -0.54229042	     -0.01436349	     -0.18312111	     29.17991090	    -10.18614354	     -3.71783417	    -63.66958083	     -9.40341337	      5.92226844	     26.64782271	      4.95465866	     16.42178717	      4.70894592	    -10.08346615	      6.10752087	      2.49570823	     -9.13468887	      6.51129233	    -10.47586580	     -0.47040818
      3.31000000	     -4.26172996	      8.42355328	      0.77796022	     -0.53619662	     -0.01393482	     -0.18337859	     29.76251538	     -9.97005809	     -3.86170634	    -62.76712148	     -8.81696302	      5.92494978	     26.48504893	      4.04594674	     16.25389374	      4.81162580	     -9.51435314	      6.24090901	      2.70052302	     -9.20378439	      6.35753897	    -10.34463443	     -0.64413829
      3.31500000	     -4.16309943	      8.28540309	      0.86399270	     -0.53013481	     -0.01356838	     -0.18366193	     30.30491923	     -9.76581472	     -4.00738875	    -61.80825295	     -8.23295466	      5.90260628	     26.19283140	      3.13866524	     16.09229784	      4.87515855	     -8.96184595	      6.38091358	      2.94993959	     -9.22556330	      6.18508401	    -10.21472439	     -0.83352014
      3.32000000	     -4.08669554	      8.14085281	      0.95295337	     -0.52406776	     -0.01328023	     -0.18391913	     30.84182869	     -9.55036055	     -4.14697428	    -60.78584617	     -7.68388270	      5.86378488	     25.82094384	      2.27273646	     15.91984570	      4.90518302	     -8.43459060	      6.52796375	      3.21533534	     -9.19906728	      6.03856346	    -10.08745122	     -1.02976720
      3.32500000	     -4.03676214	      7.99635587	      1.04346324	     -0.51799520	     -0.01309569	     -0.18415187	     31.38173609	     -9.33379464	     -4.28175996	    -59.70461104	     -7.17256978	      5.80683099	     25.42668694	      1.44996135	     15.74704158	      4.92283543	     -7.93091295	      6.70133685	      3.46127990	     -9.13917409	      5.92832633	     -9.96601910	     -1.21442546
      3.33000000	     -3.93085769	      7.87074298	      1.14446960	     -0.51200789	     -0.01291801	     -0.18436267	     31.83337795	     -9.14034369	     -4.42652015	    -58.58120040	     -6.59398766	      5.72666972	     24.79670737	      0.59125894	     15.58762419	      4.93694624	     -7.46045626	      6.84518616	      3.76501884	     -9.03358717	      5.72853555	     -9.86044983	     -1.41134512
      3.33500000	     -3.90037838	      7.71646422	      1.24105294	     -0.50602816	     -0.01285085	     -0.18457757	     32.34010919	     -8.90979671	     -4.54205384	    -57.38036794	     -6.11476645	      5.66821255	     24.26868004	     -0.16264027	     15.40616936	      4.93418372	     -7.02001495	      6.98467649	      3.97475980	     -8.95172847	      5.61229352	     -9.72666729	     -1.64489236
      3.34000000	     -3.84319232	      7.57476786	      1.33941494	     -0.50003592	     -0.01282355	     -0.18474788	     32.78239550	     -8.69315077	     -4.65961810	    -56.12457349	     -5.62236806	      5.59276674	     23.65255163	     -0.93389024	     15.23449571	      4.95663115	     -6.60797945	      7.14458344	      4.17526048	     -8.86277833	      5.47651595	     -9.61381576	     -1.85421802
      3.34500000	     -3.91142728	      7.43891277	      1.42989556	     -0.49409752	     -0.01296582	     -0.18491213	     33.34629740	     -8.46516310	     -4.69484607	    -54.79280042	     -5.21673869	      5.53504222	     23.33508756	     -1.52886115	     15.07771294	      5.00360193	     -6.25823854	      7.28876861	      4.29499133	     -8.83062452	      5.47279034	     -9.49666700	     -1.99436297
      3.35000000	     -3.77310847	      7.27299190	      1.54037554	     -0.48823302	     -0.01294777	     -0.18498762	     33.62855203	     -8.23528953	     -4.87206497	    -53.41373445	     -4.72769040	      5.41169785	     22.55046050	     -2.34427629	     14.87183658	      5.04759810	     -5.91078440	      7.46373771	      4.45435993	     -8.78509108	      5.20376682	     -9.38291692	     -2.28749446
      3.35500000	     -3.74232466	      7.12233931	      1.63939758	     -0.48232127	     -0.01308403	     -0.18510576	     34.00465246	     -8.00589472	     -4.95465667	    -51.99224913	     -4.22909286	      5.39934546	     21.75917123	     -3.02119079	     14.69404269	      5.11033107	     -5.60923878	      7.63769114	      4.54818488	     -8.77629687	      5.08335771	     -9.25650814	     -2.50037257
      3.36000000	     -3.74122605	      6.97676048	      1.73421402	     -0.47647816	     -0.01329676	     -0.18515614	     34.39052124	     -7.77693504	     -5.02004544	    -50.51249658	     -3.77152120	      5.38198068	     21.09289055	     -3.63710924	     14.51841881	      5.18647309	     -5.34965433	      7.81458651	      4.61226493	     -8.80488503	      4.97492874	     -9.14971638	     -2.71226901
      3.36500000	     -3.72112476	      6.82957895	      1.82785503	     -0.47067471	     -0.01351491	     -0.18516973	     34.71957794	     -7.54207707	     -5.06708001	    -48.97822732	     -3.32730560	      5.38239278	     20.37352782	     -4.25971949	     14.33497901	      5.28400325	     -5.11171372	      7.99184221	      4.68151488	     -8.88298955	      4.83593793	     -9.04770080	     -2.94895215
      3.37000000	     -3.83437123	      6.69524694	      1.89660008	     -0.46490606	     -0.01393310	     -0.18517801	     35.18078702	     -7.30795787	     -5.03841932	    -47.37594260	     -2.97205972	      5.39633678	     20.07547023	     -4.68856962	     14.18034212	      5.33480039	     -4.94857974	      8.17743751	      4.69139164	     -8.90484843	      4.84203402	     -8.94712862	     -3.10077044
      3.37500000	     -3.71081416	      6.52481211	      2.01686371	     -0.45915553	     -0.01410050	     -0.18517057	     35.29562951	     -7.07779410	     -5.16386612	    -45.71243600	     -2.51013272	      5.33455709	     19.24484907	     -5.38519712	     13.96020218	      5.45906810	     -4.78612167	      8.40249393	      4.77578921	     -9.04998195	      4.56934243	     -8.82717048	     -3.41366612
      3.38000000	     -3.72162002	      6.39381819	      2.05698749	     -0.45339436	     -0.01450617	     -0.18508812	     35.57575391	     -6.83480537	     -5.13876747	    -44.09320017	     -1.86913092	      5.55724226	     18.13822495	     -5.89789636	     13.79920276	      5.50018611	     -4.69187854	      8.70610168	      4.84038802	     -9.43753541	      4.45899322	     -8.72971058	     -3.56452602
      3.38500000	     -3.74988368	      6.23872996	      2.18352407	     -0.44773858	     -0.01489257	     -0.18508837	     35.80047322	     -6.62724982	     -5.19831250	    -42.31928922	     -1.53446207	      5.52216113	     17.75939832	     -6.34942687	     13.60249666	      5.59796647	     -4.66283105	      8.96986526	      4.93607009	     -9.55407273	      4.33029853	     -8.62288072	     -3.85600175
      3.39000000	     -3.84373317	      6.09067721	      2.26398669	     -0.44203183	     -0.01538289	     -0.18508262	     36.07394489	     -6.41254417	     -5.21284727	    -40.51210040	     -1.21114900	      5.58011117	     17.47894226	     -6.72317030	     13.42107041	      5.65493003	     -4.63546349	      9.18872473	      5.00074829	     -9.59665865	      4.29657713	     -8.50114401	     -4.02914592
      3.39500000	     -3.88533973	      5.93315203	      2.36004149	     -0.43636504	     -0.01582842	     -0.18502413	     36.23803910	     -6.19140534	     -5.23937470	    -38.65916118	     -0.87186362	      5.63660267	     17.13776547	     -7.13693377	     13.21339690	      5.70822422	     -4.63450067	      9.42899394	      5.12834577	     -9.63914530	      4.17887770	     -8.38530180	     -4.27257711
      3.40000000	     -3.76282270	      5.77936019	      2.45453560	     -0.43070345	     -0.01612258	     -0.18494651	     36.17226810	     -5.98213883	     -5.33812018	    -36.78458080	     -0.43166934	      5.69054055	     16.52048920	     -7.70604741	     12.99148018	      5.65658383	     -4.68626864	      9.75092522	      5.47522616	     -9.78540468	      3.88116845	     -8.27290519	     -4.58878237
      3.40500000	     -3.89189025	      5.63724782	      2.51339025	     -0.42501887	     -0.01670941	     -0.18489794	     36.38337148	     -5.77342824	     -5.34787467	    -34.90633153	     -0.10663797	      5.87525539	     16.23508889	     -7.97707288	     12.80760100	      5.65465677	     -4.76995668	     10.00339933	      5.63629029	     -9.81324476	      3.86984110	     -8.14924773	     -4.72782822
      3.41000000	     -3.80042778	      5.47907986	      2.60806872	     -0.41936069	     -0.01704634	     -0.18478417	     36.28176241	     -5.56125303	     -5.44145642	    -32.99307421	      0.31071021	      6.03112614	     15.70649824	     -8.45483780	     12.56702189	      5.48413315	     -4.92305022	     10.38463619	      6.19012041	     -9.90539502	      3.59489400	     -8.03429873	     -5.05570386
      3.41500000	     -3.85432787	      5.32388544	      2.67799912	     -0.41363728	     -0.01756862	     -0.18471515	     36.32978765	     -5.35020361	     -5.52235408	    -31.09512276	      0.68740028	      6.24816598	     15.34399845	     -8.75954979	     12.34872477	      5.31468107	     -5.10249829	     10.73937616	      6.64216742	     -9.95255879	      3.49444270	     -7.90124707	     -5.26345562
      3.42000000	     -3.86080215	      5.19020864	      2.73304405	     -0.40796305	     -0.01802199	     -0.18460741	     36.30344987	     -5.14192071	     -5.52006669	    -29.21013384	      1.00968835	      6.53033673	     14.97579356	     -9.08477634	     12.13687590	      5.08261537	     -5.33681726	     11.11026827	      7.28860207	     -9.98870631	      3.33533868	     -7.78458390	     -5.48945797
      3.42500000	     -3.91545557	      5.05463545	      2.79848125	     -0.40224130	     -0.01854825	     -0.18448710	     36.31742491	     -4.94339242	     -5.57041961	    -27.37209332	      1.33682174	      6.86069664	     14.64938413	     -9.34478301	     11.92033144	      4.83843535	     -5.59668220	     11.46700704	      7.91980577	     -9.98089608	      3.22848786	     -7.67342755	     -5.70789652
      3.43000000	     -3.97491489	      4.93477430	      2.85664627	     -0.39647884	     -0.01911378	     -0.18438407	     36.32894884	     -4.75679232	     -5.60041774	    -25.59749829	      1.67949790	      7.23823700	     14.30853873	     -9.57859070	     11.72148658	      4.54697421	     -5.90021101	     11.81972694	      8.58275108	     -9.93014976	      3.13229144	     -7.56938687	     -5.92036096
